<?xml version="1.0" encoding="UTF-8"?>
<svg width="286px" height="105px" viewBox="0 0 286 105" version="1.1" xmlns="http://www.w3.org/2000/svg" xmlns:xlink="http://www.w3.org/1999/xlink">
    <title>AEROTAGE LOGO</title>
    <g id="AEROTAGE-LOGO" stroke="none" stroke-width="1" fill="none" fill-rule="evenodd">
        <path d="M252.6098,42.2124 L252.6098,76.2454 C252.6098,77.0954 252.4688,78.0664 252.1918,79.1574 C251.9098,80.2434 251.4848,81.3444 250.9118,82.4654 C250.3398,83.5864 249.6128,84.6894 248.7328,85.7754 C247.8478,86.8644 246.8128,87.8294 245.6208,88.6704 C244.4278,89.5144 243.0608,90.1914 241.5298,90.7024 C241.2378,90.8004 240.937356,90.8864 240.632319,90.9639556 L240.1718,91.0744 L240.1718,91.0904 C239.8638,91.1514 239.5568,91.2034 239.2458,91.2484 L238.916175,91.29515 L238.916175,91.29515 L238.2868,91.3674 L238.2868,91.3674 C237.83155,91.41465 237.3673,91.4484 236.887722,91.4623219 L236.4028,91.4694 L236.4028,91.4474 C235.9958,91.4444 235.5838,91.4304 235.1718,91.3984 C230.2968,91.0244 225.8458,88.7834 222.4608,85.0424 C223.4688,84.1004 224.4768,83.1634 225.4688,82.2044 C228.1528,85.1944 231.6558,86.9934 235.4848,87.2834 C235.687467,87.3007333 235.892356,87.3091778 236.0968,87.3140667 L236.4028,87.3194 L236.4028,87.2784 C237.8498,87.2784 239.1508,87.0934 240.3128,86.7214 C241.4748,86.3474 242.5118,85.8494 243.4258,85.2294 C244.3358,84.6154 245.1208,83.9084 245.7868,83.1214 C246.4458,82.3334 246.9868,81.5314 247.4098,80.7214 C247.8318,79.9114 248.1448,79.1184 248.3538,78.3404 C248.536371,77.6726857 248.641065,77.0637469 248.667252,76.5148431 L248.6738,76.2454 L248.6738,70.0714 C248.1328,70.7754 247.5528,71.3984 246.9458,71.9414 C246.3318,72.4874 245.6988,72.9554 245.0488,73.3504 C244.3968,73.7424 243.7478,74.0824 243.1098,74.3574 C242.4668,74.6334 241.8438,74.8574 241.2438,75.0304 C239.8418,75.4314 238.4258,75.6784 237.0038,75.7654 C234.8008,75.7654 232.7248,75.3374 230.7808,74.4854 C228.8358,73.6304 227.1428,72.4534 225.6988,70.9524 C224.2578,69.4474 223.1138,67.6784 222.2718,65.6414 C221.4298,63.6044 221.0058,61.3944 221.0058,59.0064 C221.0058,56.6164 221.4238,54.3984 222.2538,52.3534 C223.0838,50.3054 224.2248,48.5284 225.6678,47.0284 C227.1118,45.5234 228.7888,44.3454 230.7048,43.4924 C232.6188,42.6384 234.6578,42.2124 236.8278,42.2124 C238.2268,42.2764 239.6308,42.5214 241.0348,42.9494 C242.2368,43.3114 243.5278,43.8854 244.8988,44.6724 C246.157383,45.4002333 247.320175,46.3893931 248.385634,47.6491222 L248.6738,47.9994 L248.6408,42.2124 L252.6098,42.2124 Z M139.6385,43.0421 L139.6385,47.1371 C138.1135,47.1371 136.7565,47.3271 135.5645,47.6971 C134.3725,48.0701 133.3175,48.5621 132.4035,49.1681 C131.4935,49.7771 130.7115,50.4571 130.0625,51.2171 C129.4075,51.9761 128.8785,52.7331 128.4675,53.5031 C128.0575,54.2711 127.7545,54.9951 127.5655,55.6781 C127.3735,56.3621 127.2795,56.9371 127.2795,57.4051 L127.2795,75.3201 L123.3715,75.3201 L123.3715,43.0771 L127.2495,43.0771 L127.2495,48.4151 C127.7895,47.7571 128.3815,47.1711 129.0225,46.6581 C129.6655,46.1451 130.3265,45.6981 131.0075,45.3141 C131.6885,44.9331 132.3755,44.6121 133.0675,44.3551 C133.7605,44.0971 134.4265,43.8881 135.0675,43.7181 C136.5735,43.3321 138.0925,43.1081 139.6385,43.0421 Z M175.7695,26.0605 L175.7695,41.0615 L188.3655,41.0615 L188.3655,45.3165 L175.7365,45.3165 L175.7365,58.7335 C175.7365,60.4605 176.0485,62.0695 176.6655,63.5745 C177.2895,65.0745 178.1625,66.3795 179.2875,67.4845 C180.4105,68.5945 181.7425,69.4645 183.2855,70.1055 C184.8245,70.7465 186.5235,71.0615 188.3655,71.0615 L188.3655,75.3195 C185.8005,75.3195 183.4905,74.8425 181.4355,73.8915 C179.3785,72.9435 177.6305,71.7005 176.1955,70.1545 C174.7575,68.6085 173.6585,66.8405 172.8905,64.8585 C172.1215,62.8735 171.7405,60.8475 171.7405,58.7825 L171.7405,26.0605 L175.7695,26.0605 Z M218.7518,42.2131 L218.7518,75.3201 L214.8708,75.3201 L214.8708,69.6881 C213.7538,71.0961 212.5138,72.1791 211.1598,72.9381 C209.8068,73.6901 208.5288,74.2541 207.3218,74.6151 C205.9218,75.0181 204.5158,75.2541 203.1128,75.3201 C200.9298,75.3201 198.8928,74.8681 196.9958,73.9741 C195.0998,73.0811 193.4588,71.8711 192.0648,70.3491 C190.6718,68.8261 189.5718,67.0711 188.7698,65.0771 C187.9668,63.0851 187.5688,60.9791 187.5688,58.7641 C187.5688,56.5691 187.9668,54.4711 188.7698,52.4721 C189.5718,50.4661 190.6718,48.7051 192.0648,47.1831 C193.4588,45.6571 195.1058,44.4511 197.0138,43.5541 C198.9158,42.6601 200.9708,42.2131 203.1758,42.2131 C204.5778,42.2791 205.9808,42.5121 207.3868,42.9161 C207.9858,43.0881 208.6108,43.3051 209.2658,43.5711 C209.9138,43.8421 210.5688,44.1691 211.2188,44.5661 C211.8668,44.9551 212.5058,45.4161 213.1268,45.9391 C213.7538,46.4621 214.3298,47.0771 214.8708,47.7781 L214.8708,42.2131 L218.7518,42.2131 Z M105.5388,42.2777 C107.2218,42.2777 108.7798,42.5167 110.2168,42.9957 C111.6498,43.4757 112.9428,44.1257 114.0948,44.9497 C115.2468,45.7697 116.2588,46.7397 117.1328,47.8567 C118.0018,48.9777 118.7348,50.1697 119.3258,51.4397 C119.9148,52.7097 120.3638,54.0257 120.6658,55.3897 C120.922086,56.5605571 121.069637,57.7240673 121.106564,58.8751927 L121.1158,59.4497 L93.7808,59.4497 C93.80405,59.6342 93.8355969,59.8388094 93.8754934,60.0637391 L93.9664348,60.5407547 L93.9664348,60.5407547 L94.0797355,61.0723328 C94.1004875,61.1654969 94.122175,61.26095 94.1448,61.3587 C94.3258,62.1347 94.6028,62.9677 94.9868,63.8527 C95.3678,64.7337 95.8478,65.6277 96.4278,66.5207 C97.0078,67.4177 97.7318,68.2217 98.5938,68.9347 C99.4528,69.6507 100.4618,70.2297 101.6138,70.6817 C102.7688,71.1267 104.0958,71.3507 105.5988,71.3507 C106.4818,71.2877 107.2688,71.1727 107.9608,71.0137 C108.6528,70.8577 109.4238,70.5977 110.2768,70.2477 C111.1268,69.8947 111.9688,69.3937 112.8018,68.7447 C113.52805,68.175075 114.206831,67.4722313 114.836804,66.6328191 L115.1038,66.2647 L119.2958,66.2647 L119.137874,66.6224037 C119.1118,66.6817 119.085133,66.7397 119.0568,66.7947 C118.4048,67.9977 117.6838,69.0457 116.8908,69.9457 C116.0968,70.8387 115.2738,71.5927 114.4108,72.1977 C113.5498,72.8067 112.6948,73.3137 111.8538,73.7187 C109.8678,74.6547 107.7738,75.1887 105.5698,75.3187 C103.7648,75.3187 102.1318,75.0657 100.6698,74.5667 C99.2028,74.0627 97.8958,73.3827 96.7438,72.5167 C95.5928,71.6527 94.5948,70.6637 93.7528,69.5437 C92.9108,68.4227 92.2188,67.2387 91.6758,65.9947 C91.1358,64.7457 90.7318,63.4777 90.4608,62.1887 C90.1868,60.8957 90.0518,59.6687 90.0518,58.4907 C90.0518,57.5137 90.1848,56.4307 90.4468,55.2467 C90.7048,54.0627 91.1078,52.8677 91.6478,51.6637 C92.1908,50.4607 92.8738,49.2977 93.7068,48.1787 C94.5368,47.0587 95.5318,46.0607 96.6838,45.1887 C97.8358,44.3147 99.1488,43.6107 100.6228,43.0767 C102.0958,42.5457 103.7348,42.2777 105.5388,42.2777 Z M153.7263,41.798 C155.8923,41.798 157.9293,42.231 159.8433,43.108 C161.7563,43.985 163.4333,45.183 164.8653,46.707 C166.3023,48.23 167.4273,50.012 168.2523,52.046 C169.0683,54.083 169.4803,56.253 169.4803,58.557 C169.4803,60.86 169.0683,63.03 168.2523,65.067 C167.4273,67.104 166.3023,68.882 164.8653,70.408 C163.4333,71.931 161.7563,73.132 159.8433,74.005 C157.9293,74.882 155.8923,75.318 153.7263,75.318 C151.5623,75.318 149.5213,74.882 147.6073,74.005 C145.6923,73.132 144.0163,71.931 142.5863,70.408 C141.1523,68.882 140.0233,67.104 139.2003,65.067 C138.3803,63.03 137.9683,60.86 137.9683,58.557 C137.9683,56.253 138.3803,54.083 139.2003,52.046 C140.0233,50.012 141.1523,48.23 142.5863,46.707 C144.0163,45.183 145.6923,43.985 147.6073,43.108 C149.5213,42.231 151.5623,41.798 153.7263,41.798 Z M270.3519,42.2781 C272.0329,42.2781 273.5939,42.5161 275.0289,42.9961 C276.4609,43.4751 277.7519,44.1281 278.9079,44.9501 C280.0589,45.7671 281.0699,46.7401 281.9429,47.8571 C282.8149,48.9781 283.5489,50.1701 284.1389,51.4401 C284.7269,52.7091 285.1759,54.0251 285.4729,55.3901 C285.7389,56.584475 285.887759,57.772725 285.920818,58.9494906 L285.9279,59.4531 L258.5919,59.4531 L258.648025,59.8466625 C258.659338,59.91685 258.671619,59.9893344 258.684853,60.0641156 L258.775572,60.5403656 L258.775572,60.5403656 L258.888416,61.0717406 C258.909025,61.1648969 258.930525,61.26035 258.9529,61.3581 C259.1329,62.1341 259.4139,62.9671 259.7949,63.8511 C260.1779,64.7331 260.6599,65.6271 261.2419,66.5211 C261.8199,67.4171 262.5429,68.2221 263.4039,68.9341 C264.2679,69.6491 265.2759,70.2301 266.4279,70.6821 C267.5779,71.1261 268.9079,71.3511 270.4119,71.3511 C271.2929,71.2871 272.0819,71.1751 272.7699,71.0141 C273.4649,70.8571 274.2359,70.5971 275.0899,70.2461 C275.9399,69.8931 276.7809,69.3941 277.6109,68.7441 C278.34065,68.1736 279.018338,67.4714125 279.645972,66.6348578 L279.9119,66.2681 L284.1089,66.2681 C284.0259,66.4381 283.9549,66.6331 283.8689,66.7941 C283.2169,67.9981 282.4939,69.0461 281.7029,69.9451 C280.9119,70.8391 280.0819,71.5921 279.2229,72.1981 C278.3579,72.8071 277.5079,73.3141 276.6659,73.7181 C274.6839,74.6571 272.5859,75.1891 270.3789,75.3181 C268.5779,75.3181 266.9449,75.0661 265.4809,74.5651 C264.0139,74.0621 262.7069,73.3821 261.5569,72.5171 C260.4009,71.6561 259.4079,70.6631 258.5629,69.5441 C257.7229,68.4261 257.0289,67.2391 256.4899,65.9941 C255.9489,64.7441 255.5429,63.4781 255.2719,62.1891 C254.9999,60.8951 254.8649,59.6691 254.8649,58.4931 C254.8649,57.5141 254.9939,56.4291 255.2559,55.2471 C255.5199,54.0661 255.9179,52.8711 256.4569,51.6671 C256.9999,50.4611 257.6859,49.2961 258.5159,48.1791 C259.3519,47.0581 260.3439,46.0611 261.4959,45.1881 C262.6489,44.3141 263.9609,43.6101 265.4359,43.0751 C266.9039,42.5441 268.5489,42.2781 270.3519,42.2781 Z M80.8042,44.5625 L91.9182,75.0455 L85.6172,75.0455 L75.5732,47.6425 C77.3002,46.6135 79.0412,45.5855 80.8042,44.5625 Z M52.4911,62.3524 L47.8421,75.0404 L41.5391,75.0404 L43.9791,68.3514 C46.7461,66.3474 49.5781,64.3464 52.4911,62.3524 Z M236.8278,46.3364 C235.1778,46.3364 233.6288,46.6694 232.1818,47.3314 C230.7288,47.9914 229.4568,48.8964 228.3768,50.0474 C227.2928,51.2004 226.4398,52.5474 225.8188,54.0964 C225.1958,55.6434 224.8868,57.2884 224.8868,59.0354 C224.8868,60.7854 225.1958,62.4314 225.8188,63.9774 C226.4398,65.5234 227.2928,66.8734 228.3768,68.0224 C229.4568,69.1784 230.7288,70.0824 232.1818,70.7404 C233.6288,71.4044 235.1778,71.7354 236.8278,71.7354 C238.4668,71.7354 240.0118,71.4044 241.4548,70.7404 C242.8988,70.0824 244.1618,69.1784 245.2438,68.0224 C246.3278,66.8734 247.1818,65.5234 247.8008,63.9774 C248.4218,62.4314 248.7328,60.7854 248.7328,59.0354 C248.7328,57.2884 248.4218,55.6434 247.8008,54.0964 C247.1818,52.5474 246.3278,51.2004 245.2438,50.0474 C244.1618,48.8964 242.8988,47.9914 241.4548,47.3314 C240.0118,46.6694 238.4668,46.3364 236.8278,46.3364 Z M203.1758,46.1811 C201.5528,46.1811 200.0158,46.5101 198.5738,47.1711 C197.1308,47.8311 195.8768,48.7311 194.8148,49.8601 C193.7538,50.9931 192.9118,52.3291 192.2888,53.8651 C191.6678,55.4031 191.3578,57.0351 191.3578,58.7641 C191.3578,60.4971 191.6678,62.1281 192.2888,63.6661 C192.9118,65.2031 193.7538,66.5361 194.8148,67.6711 C195.8768,68.8011 197.1308,69.7001 198.5738,70.3571 C200.0158,71.0211 201.5528,71.3511 203.1758,71.3511 C204.7968,71.3511 206.3278,71.0211 207.7598,70.3571 C209.1968,69.7001 210.4418,68.8011 211.5018,67.6711 C212.5688,66.5361 213.4098,65.2031 214.0328,63.6661 C214.6528,62.1281 214.9648,60.4971 214.9648,58.7641 C214.9648,57.0351 214.6528,55.4031 214.0328,53.8651 C213.4098,52.3291 212.5688,50.9931 211.5018,49.8601 C210.4418,48.7311 209.1968,47.8311 207.7598,47.1711 C206.3278,46.5101 204.7968,46.1811 203.1758,46.1811 Z M153.7263,45.826 C152.0603,45.826 150.5023,46.165 149.0503,46.834 C147.5973,47.506 146.3283,48.418 145.2463,49.57 C144.1623,50.719 143.3093,52.07 142.6893,53.614 C142.0683,55.161 141.7563,56.81 141.7563,58.557 C141.7563,60.327 142.0683,61.984 142.6893,63.53 C143.3093,65.078 144.1623,66.423 145.2463,67.578 C146.3283,68.727 147.5973,69.632 149.0503,70.296 C150.5023,70.957 152.0603,71.287 153.7263,71.287 C155.3673,71.287 156.9163,70.957 158.3733,70.296 C159.8263,69.632 161.0913,68.727 162.1743,67.578 C163.2573,66.423 164.1133,65.078 164.7483,63.53 C165.3793,61.984 165.6953,60.327 165.6953,58.557 C165.6953,56.81 165.3793,55.161 164.7483,53.614 C164.1133,52.07 163.2573,50.719 162.1743,49.57 C161.0913,48.418 159.8263,47.506 158.3733,46.834 C156.9163,46.165 155.3673,45.826 153.7263,45.826 Z M105.5388,46.2117 C104.6168,46.2747 103.8008,46.3927 103.0908,46.5617 C102.3758,46.7347 101.5798,47.0037 100.6978,47.3767 C99.8148,47.7517 98.9508,48.2857 98.0978,48.9777 C97.2438,49.6707 96.4568,50.5497 95.7358,51.6147 C95.0794364,52.5874273 94.5577835,53.7585017 94.1655821,55.1331823 L94.0518,55.5517 L117.0288,55.5517 C116.6228,53.9947 116.0658,52.6847 115.3428,51.6147 C114.6208,50.5497 113.8328,49.6707 112.9828,48.9777 C112.1298,48.2857 111.2618,47.7517 110.3798,47.3767 C109.4978,47.0037 108.7018,46.7347 107.9898,46.5617 C107.2798,46.3927 106.4608,46.2747 105.5388,46.2117 Z M270.3519,46.2111 C269.4299,46.2771 268.6129,46.3951 267.9009,46.5621 C267.1899,46.7331 266.3949,47.0061 265.5099,47.3771 C264.6269,47.7521 263.7619,48.2841 262.9059,48.9781 C262.0569,49.6711 261.2719,50.5491 260.5469,51.6151 C259.893264,52.5869182 259.369379,53.7579099 258.97675,55.1333344 L258.8629,55.5521 L281.8379,55.5521 C281.4359,53.9941 280.8789,52.6841 280.1539,51.6151 C279.4359,50.5491 278.6449,49.6711 277.7909,48.9781 C276.9429,48.2841 276.0739,47.7521 275.1929,47.3771 C274.3129,47.0061 273.5159,46.7331 272.8029,46.5621 C272.0899,46.3951 271.2739,46.2771 270.3519,46.2111 Z M68.546,18.5481 L68.546,18.5531 L71.325,18.5531 L77.315,34.9881 C76.1296667,35.6594333 74.9581111,36.3356556 73.7938148,37.0158778 L72.052,38.0391 L66.728,23.5131 L58.273,46.5831 C55.9642,48.0919 53.70276,49.61094 51.487144,51.141756 L49.834,52.2921 L62.134,18.5481 L68.546,18.5481 Z" id="Shape" fill="#3C3C3C"></path>
        <path d="M165.0957,0.0004 C165.0957,0.0004 47.5057,34.8884 -0.0003,104.5784 C0.0717,104.4674 31.5667,55.0614 165.0957,0.0004" id="Fill-7" fill="#B0CC35"></path>
    </g>
</svg>